<svg xmlns="http://www.w3.org/2000/svg" xml:space="preserve" viewBox="0 0 64 64"><path fill="none" d="M40.909 36.469 47.6 54.174l.02.053c-2.025.729-2.801 2.232-5.996 2.232-4.223 0-4.223-2.619-8.443-2.619-4.222 0-4.222 2.619-8.439 2.619-4.222 0-4.222-2.619-8.443-2.619M39.222 32h-5.389M30.137 32h-.861M51.593 22.914c-.701 1.22-1.631.685-2.334 1.904-.701 1.22.229 1.755-.475 2.976-.703 1.222-1.633.687-2.334 1.906"/><circle cx="15.5" cy="37" r="1"/><path fill="none" d="m12.274 18.577-3.365-2.111M35.751 10.986l2.109-3.365M24.311 20.389c0 1.294-.499 2.455-1.289 3.25M39.608 20.389c0 1.294.498 2.455 1.289 3.25M38.606 14.963c-1.221 2.738-3.719 4.614-6.602 4.614-2.896 0-5.403-1.893-6.617-4.648M25.391 14.935l-1.08.615M38.61 14.967l.998.583M24.311 20.389V15.55M39.608 20.389V15.55"/><path fill="none" d="M38.61 14.963c-.014 4.71-2.969 8.521-6.611 8.521-1.48 0-2.846-.629-3.947-1.691M20.291 55.008l2.632-8.41M28.983 54.736l.807-14.843M38.138 55.588l-1.082-8.274M24.717 31.992 16.298 53.84M23.043 23.63c1.024 2.013 1.674 5.012 1.674 8.361M40.897 23.639c-1.025 2.013-1.676 5.012-1.676 8.361"/></svg>