<svg xmlns="http://www.w3.org/2000/svg" xml:space="preserve" width="64" height="64"><path fill="none" stroke-linecap="round" stroke-linejoin="round" stroke-miterlimit="10" stroke-width="2.7" d="M53.141 31.687c-.701 1.22-1.629.685-2.332 1.904s.227 1.755-.477 2.976c-.701 1.222-1.633.687-2.334 1.906M14.555 20.262a.888.888 0 1 1-.888.888M53.129 9.024l-3.365-2.11M20.043 51.067l3.365-2.11M32.864 34.167a7.384 7.384 0 0 0 1.927-2.078 7.427 7.427 0 0 0 1.021-2.661 7.459 7.459 0 0 1-8.335.296 2.795 2.795 0 0 0-3.853.893 2.771 2.771 0 0 0-.199.406 2.766 2.766 0 0 0-.359-.277 2.795 2.795 0 0 0-3.853.893 7.466 7.466 0 0 1-7.617 3.4 7.443 7.443 0 0 0 2.086 1.939 7.456 7.456 0 0 0 10.275-2.379c.082-.132.143-.268.201-.407.112.099.228.194.358.277a7.425 7.425 0 0 0 3.851 1.132M32.862 34.162 37.943 56.1M43.561 20.751 38.846 42.77M43.561 20.751a6.475 6.475 0 0 0 1.563-1.994c-.102-2.568-1.855-5.006-4.533-6.42a5.226 5.226 0 0 1-3.047.26 5.223 5.223 0 0 1-2.672-1.484c-3.023.193-5.621 1.7-6.765 4.001.134 3.375 3.115 6.528 7.308 7.427 1.307.279 2.596.311 3.797.129"/><path fill="none"  stroke-linecap="round" stroke-linejoin="round" stroke-miterlimit="10" stroke-width="2.7" d="M41.039 17.021a10.66 10.66 0 0 0-4.443-.004 10.665 10.665 0 0 0-4.055-1.816c-1.505-.321-3-.312-4.416-.017"/></svg>